<svg xmlns="http://www.w3.org/2000/svg" width="355.399" height="199.607" viewBox="0 0 355.399 199.607">
  <g id="Group_4935" data-name="Group 4935" transform="translate(-188.007 -913.577)">
    <rect id="Rectangle_672" data-name="Rectangle 672" width="355.399" height="199.607" transform="translate(188.007 913.577)" fill="#e2e2e2"/>
    <path id="Path_6423" data-name="Path 6423" d="M177.843,675.654q31.12,0,62.24.009c8.434.012,14.888,4.636,17.111,12.3a18.884,18.884,0,0,1,.636,5.18q.059,42.118.012,84.237c-.019,10.612-7.166,17.706-17.777,17.714q-62.241.045-124.481,0c-11.06-.008-18.027-7.11-18.032-18.229q-.017-41.619-.007-83.237c0-10.742,7.074-17.934,17.807-17.96,20.83-.05,41.661-.015,62.491-.016m-.269,113.73h61.99c8.1,0,12.59-4.387,12.6-12.429q.028-41.744,0-83.486c-.005-7.534-4.628-12.1-12.193-12.1q-61.99-.006-123.98.01c-8.38,0-12.788,4.423-12.791,12.8q-.013,41.242,0,82.486c0,8.217,4.472,12.712,12.635,12.716q30.87.015,61.74,0" transform="translate(188 278)" fill="#256fa1"/>
    <path id="Path_6424" data-name="Path 6424" d="M193.556,786.571c-1.191.062-1.92.134-2.648.134q-37.483.009-74.966.013c-2.945,0-5.837-.412-7.608-2.931a11.289,11.289,0,0,1-2.186-5.619c-.265-6.57-.15-13.157-.051-19.736a4.228,4.228,0,0,1,1.169-2.789q17.322-15.668,34.784-31.18c4.154-3.681,9.334-2.851,12.421,1.867q19.073,29.152,38.076,58.35c.306.47.533.992,1.009,1.891" transform="translate(188 278)" fill="#256fa1"/>
    <path id="Path_6425" data-name="Path 6425" d="M232.643,786.54c-1.036.071-1.834.172-2.632.173-10.15.011-20.3-.027-30.451.042a3.818,3.818,0,0,1-3.665-1.963q-6.794-10.609-13.772-21.1c-.995-1.491-.881-2.29.5-3.472,4.673-4,9.155-8.229,13.8-12.266,4.311-3.749,9.266-3.179,12.415,1.57,7.812,11.78,15.492,23.648,23.212,35.49a9.116,9.116,0,0,1,.6,1.524" transform="translate(188 278)" fill="#256fa1"/>
    <path id="Path_6426" data-name="Path 6426" d="M239.829,703.758a10.073,10.073,0,0,1-10.075,9.925,10.177,10.177,0,0,1-10.241-10.07A10.34,10.34,0,0,1,229.65,693.37a10.2,10.2,0,0,1,10.179,10.388" transform="translate(188 278)" fill="#256fa1"/>
  </g>
</svg>
