<svg id="Group_4876" data-name="Group 4876" xmlns="http://www.w3.org/2000/svg" xmlns:xlink="http://www.w3.org/1999/xlink" width="30.29" height="30.295" viewBox="0 0 30.29 30.295">
  <defs>
    <clipPath id="clip-path">
      <rect id="Rectangle_640" data-name="Rectangle 640" width="30.29" height="30.295" fill="none"/>
    </clipPath>
  </defs>
  <g id="Group_4875" data-name="Group 4875" clip-path="url(#clip-path)">
    <path id="Path_6406" data-name="Path 6406" d="M127.259,0c.871.515,1.744,1.027,2.613,1.545A.774.774,0,0,1,130.19,2.7c-.183.348-.376.691-.564,1.037,0,.007,0,.018,0,.061l.927.532c.186-.332.365-.657.548-.98a.761.761,0,0,1,1.2-.332q1.158.683,2.309,1.376a.771.771,0,0,1,.311,1.134c-.085.166-.183.327-.273.49s-.17.308-.274.5l.966.552c.175-.313.335-.606.5-.895a.756.756,0,0,1,1.185-.319q1.158.682,2.31,1.375a.773.773,0,0,1,.324,1.131c-.152.3-.323.582-.495.891l.555.324a.92.92,0,0,1,.4,1.45q-1.44,2.477-2.885,4.952a.933.933,0,0,1-1.464.381q-4.04-2.308-8.078-4.619l-6.591-3.768c-.711-.407-.829-.832-.421-1.532q1.42-2.438,2.842-4.874a.94.94,0,0,1,1.5-.393l.738.418c.19-.338.35-.679.561-.983A5.2,5.2,0,0,1,126.9,0h.355m12.106,10.454L124.423,1.91l-3,5.147L136.365,15.6l3-5.147" transform="translate(-110.044)" fill="#256fa1"/>
    <path id="Path_6407" data-name="Path 6407" d="M0,139.472a1.037,1.037,0,0,1,1.153-.714c.391.022.785,0,1.214,0,0-.332,0-.644,0-.955,0-.665.272-.937.925-.938q1.242,0,2.484,0a.764.764,0,0,1,.849.835c.008.342,0,.685,0,1.042h.947c0-.307,0-.618,0-.928,0-.682.268-.949.943-.949.828,0,1.656,0,2.484,0a.752.752,0,0,1,.829.794c.013.353,0,.707,0,1.079h1.421c0-.338,0-.67,0-1a.773.773,0,0,1,.872-.872q1.271,0,2.543,0a.76.76,0,0,1,.842.812c.007.177,0,.355,0,.532s0,.334,0,.549c.3,0,.591,0,.881,0A.918.918,0,0,1,19.4,139.77q0,3.016,0,6.032a.916.916,0,0,1-1.012,1.005q-8.678,0-17.356,0A1.015,1.015,0,0,1,0,146.1Zm18.436.26H.962v6.116H18.436Z" transform="translate(0 -125.038)" fill="#256fa1"/>
    <path id="Path_6408" data-name="Path 6408" d="M0,257.96a1.061,1.061,0,0,1,1.151-.717c2.563.016,5.126.007,7.688.007.767,0,1.1.33,1.1,1.095q0,2.928,0,5.855c0,.765-.332,1.095-1.1,1.095-2.563,0-5.126-.009-7.688.007A1.061,1.061,0,0,1,0,264.586Zm8.978.257H.97v6.117H8.978Z" transform="translate(0 -235.008)" fill="#256fa1"/>
    <path id="Path_6409" data-name="Path 6409" d="M139.175,237.313c0-.378-.005-.713,0-1.047a.768.768,0,0,1,.867-.846q1.271,0,2.543,0a.764.764,0,0,1,.846.837c.008.335.007.67.011,1,0,.007.012.014.045.051.275,0,.578,0,.881,0a.9.9,0,0,1,.954.943q.008,3.075,0,6.149a.916.916,0,0,1-1.035.951H127.024c-.764,0-1.1-.334-1.1-1.1q0-2.927,0-5.854c0-.761.335-1.094,1.1-1.095h12.15Zm5.192.967H126.894V244.4h17.473Z" transform="translate(-115.039 -215.07)" fill="#256fa1"/>
  </g>
</svg>
