<svg xmlns="http://www.w3.org/2000/svg" xmlns:xlink="http://www.w3.org/1999/xlink" width="47" height="47" viewBox="0 0 47 47">
  <defs>
    <clipPath id="clip-path">
      <rect id="Rectangle_669" data-name="Rectangle 669" width="47" height="47" transform="translate(0.312 0.312)" fill="none"/>
    </clipPath>
  </defs>
  <g id="Group_4927" data-name="Group 4927" transform="translate(-0.312 -0.123)">
    <g id="Group_4926" data-name="Group 4926" transform="translate(0 -0.188)" clip-path="url(#clip-path)">
      <path id="Path_6413" data-name="Path 6413" d="M26.217,3.338A21.668,21.668,0,0,0,9.689,39.019L7.616,45.7a.65.65,0,0,0,.813.813l7.624-2.366A21.67,21.67,0,1,0,26.217,3.338Z" transform="translate(-2.938 -1.959)" fill="none" stroke="#fff" stroke-linecap="round" stroke-linejoin="round" stroke-width="2"/>
      <path id="Path_6414" data-name="Path 6414" d="M51.452,32.9A17.348,17.348,0,1,1,34.1,15.547,17.348,17.348,0,0,1,51.452,32.9" transform="translate(-10.826 -9.847)" fill="#fff"/>
      <path id="Path_6415" data-name="Path 6415" d="M56.961,32.9c0,9.581-4.78,17.348-10.676,17.348S35.61,42.476,35.61,32.9s4.779-17.348,10.675-17.348S56.961,23.314,56.961,32.9Z" transform="translate(-23.007 -9.847)" fill="none" stroke="#256fa1" stroke-linecap="round" stroke-linejoin="round" stroke-width="2"/>
      <line id="Line_73" data-name="Line 73" y2="34.696" transform="translate(23.279 5.7)" fill="none" stroke="#256fa1" stroke-linecap="round" stroke-linejoin="round" stroke-width="2.449"/>
      <path id="Path_6416" data-name="Path 6416" d="M56.624,94.962a17.344,17.344,0,0,0-22.167,0" transform="translate(-22.262 -58.568)" fill="none" stroke="#256fa1" stroke-linecap="round" stroke-linejoin="round" stroke-width="2"/>
      <path id="Path_6417" data-name="Path 6417" d="M34.458,26.859a17.344,17.344,0,0,0,22.167,0" transform="translate(-22.263 -17.155)" fill="none" stroke="#256fa1" stroke-linecap="round" stroke-linejoin="round" stroke-width="2"/>
      <line id="Line_74" data-name="Line 74" x2="34.696" transform="translate(5.93 23.048)" fill="none" stroke="#256fa1" stroke-linecap="round" stroke-linejoin="round" stroke-width="2"/>
      <path id="Path_6418" data-name="Path 6418" d="M51.452,32.9A17.348,17.348,0,1,1,34.1,15.547,17.348,17.348,0,0,1,51.452,32.9Z" transform="translate(-10.826 -9.847)" fill="none" stroke="#256fa1" stroke-linecap="round" stroke-linejoin="round" stroke-width="2"/>
    </g>
  </g>
</svg>
