<svg xmlns="http://www.w3.org/2000/svg" width="75" height="74.538" viewBox="0 0 75 74.538">
  <g id="Group_4975" data-name="Group 4975" transform="translate(-1364.099 -228.226)">
    <g id="Logos_3karatLogo" data-name="Logos / 3karatLogo" transform="translate(1354.099 218.226)">
      <ellipse id="Oval" cx="37.5" cy="37.269" rx="37.5" ry="37.269" transform="translate(10 10)" fill="#0d4264"/>
    </g>
    <g id="Group_4945" data-name="Group 4945" transform="translate(1383 240.162)">
      <path id="Path_6437" data-name="Path 6437" d="M29.537,2.969A21.361,21.361,0,0,0,18.833,0a21.361,21.361,0,0,0-10.7,2.969C2.734,6.319,0,11.523,0,18.442,0,33.466,15.787,46.9,18.693,48.748l.143.09.143-.09C21.884,46.9,37.671,33.463,37.671,18.442c0-6.916-2.734-12.123-8.131-15.473ZM19.081,45.811l-.248.2-.248-.2c-1.667-1.347-16.3-13.552-16.3-27.371C2.288,2.6,18.63,2.29,18.833,2.288S35.378,2.6,35.378,18.439c0,13.816-14.63,26.024-16.3,27.369Z" fill="#f29d38" stroke="#f29d38" stroke-width="2"/>
      <path id="Path_6438" data-name="Path 6438" d="M41.393,31.53A10.733,10.733,0,1,0,52.127,42.263,10.745,10.745,0,0,0,41.393,31.53Zm0,19.229a8.5,8.5,0,1,1,8.5-8.5A8.507,8.507,0,0,1,41.393,50.759Z" transform="translate(-22.56 -23.201)" fill="#f29d38" stroke="#f29d38" stroke-width="2"/>
    </g>
  </g>
</svg>
