<svg id="Component_1_1" data-name="Component 1 – 1" xmlns="http://www.w3.org/2000/svg" xmlns:xlink="http://www.w3.org/1999/xlink" width="213.364" height="111.949" viewBox="0 0 213.364 111.949">
  <defs>
    <clipPath id="clip-path">
      <rect id="Rectangle_227" data-name="Rectangle 227" width="213.364" height="111.949" fill="none"/>
    </clipPath>
  </defs>
  <g id="Group_1" data-name="Group 1" clip-path="url(#clip-path)">
    <path id="Path_1" data-name="Path 1" d="M310.785,144.884h-1.028q-.38,0-4.07-.016t-9.435-.016q-3.751,0-7.09.016t-5.724.016H282.41v-1.016c0-3.808.011-6.917.035-10.825s.035-7.738.035-11.5c0-6.254-.012-11.088-.035-14.37q-.035-4.951-.035-6.945V99.214h4.813v1.016q0,4.285-.035,9.9t-.035,9.191q0,8.729.035,15.732l.007,1.371c.012,2.335.02,3.236.024,4.205q1.277,0,3.373.016,3.08.018,4.558.016,5.785,0,10.055-.016l1.92-.007,2.632-.01h1.028Z" transform="translate(-97.421 -34.225)" fill="#fff"/>
    <path id="Path_2" data-name="Path 2" d="M132.237,144.834h-4.781v-.762c0-1.329.01-3.535.033-7.636s.035-8.1.035-12.019q0-5.776-.035-10.357-.032-4.251-.033-10.64-6.121,0-10.586.016-4.841.018-5.25.017h-1.028V99.173h1.028q3.271,0,7.975.017t10.014.016q7.731,0,12.891-.016l5.608-.017h1.028v4.282h-1.028q-.512,0-4.893-.017-4.079-.015-10.978-.016,0,6.146-.033,10.49-.034,4.7-.034,10.772,0,5.844.034,11.87c.022,4.023.034,6.19.034,7.519Z" transform="translate(-38.15 -34.211)" fill="#fff"/>
    <path id="Path_3" data-name="Path 3" d="M176.154,105.518c1.013,2.209,9.5,20.956,13.474,29.772l2.663-5.588c-.07-.154-.138-.3-.21-.459l-2.616-5.72c-5.211-11.4-8.817-19.354-11.02-24.311H174.33c-3.187,7.028-7.286,15.959-12.187,26.561q-7.458,16.13-8.594,18.568l-.236.508h5.095c1.24-2.739,4.11-9.1,7.194-15.939h13.6v-4.341H167.558c4.05-8.98,7.957-17.645,8.6-19.052" transform="translate(-52.887 -34.225)" fill="#cc0027"/>
    <path id="Path_4" data-name="Path 4" d="M213.163,144.851c1.24-2.739,4.11-9.1,7.194-15.939h13.6v-4.341H222.315c4.049-8.98,7.957-17.645,8.6-19.052,1.266,2.761,14.207,31.359,15.426,34.114.894,2.021,1.68,3.767,2.348,5.219h5.293l-.23-.5q-1.412-3.083-6.909-15.105l-2.616-5.72c-5.211-11.4-8.817-19.354-11.02-24.311h-4.116c-3.188,7.028-7.286,15.959-12.188,26.561q-7.458,16.13-8.593,18.568l-.236.508Z" transform="translate(-71.776 -34.225)" fill="#fff"/>
    <path id="Path_5" data-name="Path 5" d="M64.74,94.311a30.186,30.186,0,0,0,3.463-.75l9.71-2.864.569-4.5" transform="translate(-22.333 -29.734)" fill="none" stroke="#fff" stroke-linecap="round" stroke-linejoin="round" stroke-width="4.046"/>
    <path id="Path_6" data-name="Path 6" d="M64.889,158.59q-.049,0-.1,0l-8.119-.6a1.325,1.325,0,0,1-1.228-1.293l-.435-20.135a1.326,1.326,0,0,1,1.3-1.353,1.306,1.306,0,0,1,1.353,1.3l.408,18.931,6.917.509a1.325,1.325,0,0,1-.1,2.647" transform="translate(-18.976 -46.641)" fill="#fff"/>
    <path id="Path_7" data-name="Path 7" d="M28.919,54.762a30.035,30.035,0,0,1-15.46-4.321A27.69,27.69,0,0,1,1.1,35.173C-1.246,27.73.255,19,4.672,14.418a1.325,1.325,0,1,1,1.909,1.839C2.8,20.182,1.557,27.8,3.631,34.375A25.04,25.04,0,0,0,14.822,48.168a27.04,27.04,0,0,0,26.346.985,22.97,22.97,0,0,0,10.6-10.68,26.815,26.815,0,0,0,1.165-17.738,26.152,26.152,0,0,0-9.1-13.872c-6.294-4.83-14.239-5.553-20.738-1.887-6.712,3.787-11.631,12.408-12.24,21.45A1.326,1.326,0,0,1,8.2,26.247C8.882,16.2,14.214,6.941,21.787,2.667c7.439-4.2,16.5-3.4,23.654,2.092A28.814,28.814,0,0,1,55.486,20.037a29.539,29.539,0,0,1-1.315,19.544,25.594,25.594,0,0,1-11.8,11.933,29.536,29.536,0,0,1-13.454,3.248" transform="translate(0 0)" fill="#fff"/>
    <path id="Path_8" data-name="Path 8" d="M38.143,11.53A17.518,17.518,0,0,0,25.018,26.849" transform="translate(-8.63 -3.977)" fill="none" stroke="#fff" stroke-linecap="round" stroke-linejoin="round" stroke-width="3.113"/>
    <path id="Path_9" data-name="Path 9" d="M47.727,58.542c5.442,6.445,12.051,2.094,15.531-4.218" transform="translate(-16.464 -18.74)" fill="none" stroke="#d00028" stroke-linecap="round" stroke-linejoin="round" stroke-width="3.113"/>
    <path id="Path_10" data-name="Path 10" d="M45.472,33.161a25.689,25.689,0,0,1,.054,6.338" transform="translate(-15.686 -11.439)" fill="none" stroke="#fff" stroke-width="3.113"/>
    <path id="Path_11" data-name="Path 11" d="M65.777,26.55a25.694,25.694,0,0,1,.054,6.339" transform="translate(-22.691 -9.159)" fill="none" stroke="#fff" stroke-width="3.113"/>
    <path id="Path_12" data-name="Path 12" d="M45.177,76.826a28.287,28.287,0,0,1-26.48-1.57l-.041-.026a4.845,4.845,0,0,0-1.04,2.988l-4.408,32.648a4.731,4.731,0,0,0,4.661,4.8H45.147a4.731,4.731,0,0,0,4.659-4.8L45.4,78.218A4.907,4.907,0,0,0,45.177,76.826Z" transform="translate(-4.557 -25.952)" fill="none" stroke="#fff" stroke-width="4.046"/>
    <path id="Path_13" data-name="Path 13" d="M15.074,158.591a1.325,1.325,0,0,1-.1-2.647l6.917-.509L22.3,136.5a1.325,1.325,0,0,1,1.324-1.3h.029a1.326,1.326,0,0,1,1.3,1.353L24.519,156.7a1.325,1.325,0,0,1-1.228,1.293l-8.119.6q-.049,0-.1,0" transform="translate(-4.743 -46.642)" fill="#fff"/>
    <path id="Path_14" data-name="Path 14" d="M27.5,91.157s8.933,18.175,30.932,11.136l9.588-3.248.464-4.485" transform="translate(-9.485 -31.446)" fill="none" stroke="#fff" stroke-linecap="round" stroke-linejoin="round" stroke-width="4.046"/>
    <path id="Path_15" data-name="Path 15" d="M227.711,99.214H223.04c-2.143,4.723-4.7,10.307-7.629,16.68h4.771c2.392-5.3,7.105-15.745,7.529-16.68" transform="translate(-74.309 -34.225)" fill="#fff"/>
    <path id="Path_16" data-name="Path 16" d="M310.785,144.884h-1.028q-.38,0-4.07-.016t-9.435-.016q-3.751,0-7.09.016t-5.724.016H282.41v-1.016c0-3.808.011-6.917.035-10.825s.035-7.738.035-11.5c0-6.254-.012-11.088-.035-14.37q-.035-4.951-.035-6.945V99.214h4.813v1.016q0,4.285-.035,9.9t-.035,9.191q0,8.729.035,15.732l.007,1.371c.012,2.335.02,3.236.024,4.205q1.277,0,3.373.016,3.08.018,4.558.016,5.785,0,10.055-.016l1.92-.007,2.632-.01h1.028Z" transform="translate(-97.421 -34.225)" fill="#fff"/>
    <path id="Path_17" data-name="Path 17" d="M132.237,144.834h-4.781v-.762c0-1.329.01-3.535.033-7.636s.035-8.1.035-12.019q0-5.776-.035-10.357-.032-4.251-.033-10.64-6.121,0-10.586.016-4.841.018-5.25.017h-1.028V99.173h1.028q3.271,0,7.975.017t10.014.016q7.731,0,12.891-.016l5.608-.017h1.028v4.282h-1.028q-.512,0-4.893-.017-4.079-.015-10.978-.016,0,6.146-.033,10.49-.034,4.7-.034,10.772,0,5.844.034,11.87c.022,4.023.034,6.19.034,7.519Z" transform="translate(-38.15 -34.211)" fill="#fff"/>
    <path id="Path_18" data-name="Path 18" d="M176.154,105.518c1.013,2.209,9.5,20.956,13.474,29.772l2.663-5.588c-.07-.154-.138-.3-.21-.459l-2.616-5.72c-5.211-11.4-8.817-19.354-11.02-24.311H174.33c-3.187,7.028-7.286,15.959-12.187,26.561q-7.458,16.13-8.594,18.568l-.236.508h5.095c1.24-2.739,4.11-9.1,7.194-15.939h13.6v-4.341H167.558c4.05-8.98,7.957-17.645,8.6-19.052" transform="translate(-52.887 -34.225)" fill="#cc0027"/>
    <path id="Path_19" data-name="Path 19" d="M213.163,144.851c1.24-2.739,4.11-9.1,7.194-15.939h13.6v-4.341H222.315c4.049-8.98,7.957-17.645,8.6-19.052,1.266,2.761,14.207,31.359,15.426,34.114.894,2.021,1.68,3.767,2.348,5.219h5.293l-.23-.5q-1.412-3.083-6.909-15.105l-2.616-5.72c-5.211-11.4-8.817-19.354-11.02-24.311h-4.116c-3.188,7.028-7.286,15.959-12.188,26.561q-7.458,16.13-8.593,18.568l-.236.508Z" transform="translate(-71.776 -34.225)" fill="#c6c6c6"/>
    <path id="Path_20" data-name="Path 20" d="M64.74,94.311a30.186,30.186,0,0,0,3.463-.75l9.71-2.864.569-4.5" transform="translate(-22.333 -29.734)" fill="none" stroke="#fff" stroke-linecap="round" stroke-linejoin="round" stroke-width="4.046"/>
    <path id="Path_21" data-name="Path 21" d="M64.889,158.59q-.049,0-.1,0l-8.119-.6a1.325,1.325,0,0,1-1.228-1.293l-.435-20.135a1.326,1.326,0,0,1,1.3-1.353,1.306,1.306,0,0,1,1.353,1.3l.408,18.931,6.917.509a1.325,1.325,0,0,1-.1,2.647" transform="translate(-18.976 -46.641)" fill="#fff"/>
    <path id="Path_22" data-name="Path 22" d="M28.919,54.762a30.035,30.035,0,0,1-15.46-4.321A27.69,27.69,0,0,1,1.1,35.173C-1.246,27.73.255,19,4.672,14.418a1.325,1.325,0,1,1,1.909,1.839C2.8,20.182,1.557,27.8,3.631,34.375A25.04,25.04,0,0,0,14.822,48.168a27.04,27.04,0,0,0,26.346.985,22.97,22.97,0,0,0,10.6-10.68,26.815,26.815,0,0,0,1.165-17.738,26.152,26.152,0,0,0-9.1-13.872c-6.294-4.83-14.239-5.553-20.738-1.887-6.712,3.787-11.631,12.408-12.24,21.45A1.326,1.326,0,0,1,8.2,26.247C8.882,16.2,14.214,6.941,21.787,2.667c7.439-4.2,16.5-3.4,23.654,2.092A28.814,28.814,0,0,1,55.486,20.037a29.539,29.539,0,0,1-1.315,19.544,25.594,25.594,0,0,1-11.8,11.933,29.536,29.536,0,0,1-13.454,3.248" transform="translate(0 0)" fill="#fff"/>
    <path id="Path_23" data-name="Path 23" d="M38.143,11.53A17.518,17.518,0,0,0,25.018,26.849" transform="translate(-8.63 -3.977)" fill="none" stroke="#fff" stroke-linecap="round" stroke-linejoin="round" stroke-width="3.113"/>
    <path id="Path_24" data-name="Path 24" d="M47.727,58.542c5.442,6.445,12.051,2.094,15.531-4.218" transform="translate(-16.464 -18.74)" fill="none" stroke="#d00028" stroke-linecap="round" stroke-linejoin="round" stroke-width="3.113"/>
    <path id="Path_25" data-name="Path 25" d="M45.472,33.161a25.689,25.689,0,0,1,.054,6.338" transform="translate(-15.686 -11.439)" fill="none" stroke="#fff" stroke-width="3.113"/>
    <path id="Path_26" data-name="Path 26" d="M65.777,26.55a25.694,25.694,0,0,1,.054,6.339" transform="translate(-22.691 -9.159)" fill="none" stroke="#fff" stroke-width="3.113"/>
    <path id="Path_27" data-name="Path 27" d="M45.177,76.826a28.287,28.287,0,0,1-26.48-1.57l-.041-.026a4.845,4.845,0,0,0-1.04,2.988l-4.408,32.648a4.731,4.731,0,0,0,4.661,4.8H45.147a4.731,4.731,0,0,0,4.659-4.8L45.4,78.218A4.907,4.907,0,0,0,45.177,76.826Z" transform="translate(-4.557 -25.952)" fill="none" stroke="#fff" stroke-width="4.046"/>
    <path id="Path_28" data-name="Path 28" d="M15.074,158.591a1.325,1.325,0,0,1-.1-2.647l6.917-.509L22.3,136.5a1.325,1.325,0,0,1,1.324-1.3h.029a1.326,1.326,0,0,1,1.3,1.353L24.519,156.7a1.325,1.325,0,0,1-1.228,1.293l-8.119.6q-.049,0-.1,0" transform="translate(-4.743 -46.642)" fill="#fff"/>
    <path id="Path_29" data-name="Path 29" d="M27.5,91.157s8.933,18.175,30.932,11.136l9.588-3.248.464-4.485" transform="translate(-9.485 -31.446)" fill="none" stroke="#fff" stroke-linecap="round" stroke-linejoin="round" stroke-width="4.046"/>
    <path id="Path_30" data-name="Path 30" d="M227.711,99.214H223.04c-2.143,4.723-4.7,10.307-7.629,16.68h4.771c2.392-5.3,7.105-15.745,7.529-16.68" transform="translate(-74.309 -34.225)" fill="#fff"/>
  </g>
</svg>
