<svg xmlns="http://www.w3.org/2000/svg" width="75" height="74.538" viewBox="0 0 75 74.538">
  <g id="Group_4976" data-name="Group 4976" transform="translate(-1035 -228.226)">
    <g id="Logos_3karatLogo" data-name="Logos / 3karatLogo" transform="translate(1025 218.226)">
      <ellipse id="Oval" cx="37.5" cy="37.269" rx="37.5" ry="37.269" transform="translate(10 10)" fill="#0d4264"/>
    </g>
    <g id="Group_4947" data-name="Group 4947" transform="translate(1049.246 243.162)">
      <path id="Path_6442" data-name="Path 6442" d="M94.674,50.059l-3.363-.489-1.5-3.046a.852.852,0,0,0-1.527,0l-1.5,3.046-3.363.489a.851.851,0,0,0-.472,1.451l2.433,2.371L84.8,57.23a.851.851,0,0,0,1.236.9l3.007-1.581,3.007,1.581a.851.851,0,0,0,.4.1h.008a.852.852,0,0,0,.852-.852.868.868,0,0,0-.041-.263l-.554-3.231,2.433-2.371a.851.851,0,0,0-.472-1.451ZM91.2,52.976a.85.85,0,0,0-.244.753l.357,2.088-1.876-.985a.846.846,0,0,0-.792,0l-1.876.985.357-2.088a.854.854,0,0,0-.244-.753L85.366,51.5l2.1-.3a.849.849,0,0,0,.641-.466l.938-1.9.938,1.9a.857.857,0,0,0,.64.466l2.1.3Z" transform="translate(-65.723 -36.597)" fill="#f191c2" stroke="#f191c2" stroke-width="1"/>
      <path id="Path_6443" data-name="Path 6443" d="M46,9.905a4.987,4.987,0,0,0-3.449-2.827A6.61,6.61,0,0,0,38.121,8.09c-.16-.983-.345-1.811-.5-2.418a2.32,2.32,0,0,0,2.012-2.426V2.433A2.3,2.3,0,0,0,37.5,0H9.142A2.3,2.3,0,0,0,7.005,2.433v.813A2.327,2.327,0,0,0,8.986,5.67c-.154.608-.339,1.435-.5,2.42A6.613,6.613,0,0,0,4.06,7.078,4.987,4.987,0,0,0,.611,9.905c-1.95,3.683.95,9.876,4.746,12.746a6.61,6.61,0,0,0,3.935,1.523,4.394,4.394,0,0,0,2.494-.774,14.044,14.044,0,0,0,5.165,3.558c1.039.53,2.03,3.012,2.314,5.8.244,2.387-.092,4.467-.819,5.128-1.554.721-5.274,3.578-5.274,4.943a.852.852,0,0,0,.852.852h18.56a.852.852,0,0,0,.852-.852c0-1.365-3.72-4.223-5.274-4.943-.727-.661-1.063-2.741-.819-5.128.283-2.784,1.277-5.266,2.314-5.8A14.013,14.013,0,0,0,34.822,23.4a4.394,4.394,0,0,0,2.494.774,6.637,6.637,0,0,0,3.935-1.523c3.8-2.87,6.694-9.063,4.746-12.746ZM8.711,3.246V2.433c0-.411.232-.729.433-.729H37.5c.2,0,.433.318.433.729v.813c0,.411-.232.729-.433.729H9.142c-.2,0-.433-.318-.433-.729ZM6.387,21.292C3.279,18.942.648,13.485,2.12,10.7a3.332,3.332,0,0,1,2.26-1.95A5.6,5.6,0,0,1,8.247,9.96c-.345,3.58-.111,8.3,2.48,12.1-1.5.918-3.157.131-4.342-.762Zm22.6,4.1a.334.334,0,0,0-.047.023c-1.985.963-3.009,4.461-3.287,7.164-.123,1.2-.374,5.237,1.544,6.707a.829.829,0,0,0,.189.111,14.235,14.235,0,0,1,3.51,2.574H15.722a14.235,14.235,0,0,1,3.51-2.574.83.83,0,0,0,.189-.111c1.915-1.472,1.665-5.506,1.544-6.709-.275-2.7-1.3-6.2-3.285-7.164l-.047-.023a12.266,12.266,0,0,1-5.107-3.751l-.006-.008h0c-2.821-3.592-3-8.308-2.593-11.787a.866.866,0,0,0,.047-.388,26.619,26.619,0,0,1,.772-3.777H35.879a26.619,26.619,0,0,1,.772,3.777.838.838,0,0,0,.047.388c.4,3.48.226,8.2-2.593,11.787h0l-.006.008a12.279,12.279,0,0,1-5.108,3.751Zm11.241-4.1c-1.182.9-2.837,1.679-4.342.762,2.591-3.8,2.827-8.515,2.48-12.093a5.642,5.642,0,0,1,3.861-1.211A3.339,3.339,0,0,1,44.491,10.7c1.474,2.782-1.16,8.24-4.268,10.591Z" transform="translate(0)" fill="#f191c2" stroke="#f191c2" stroke-width="1"/>
    </g>
  </g>
</svg>
