<svg xmlns="http://www.w3.org/2000/svg" width="75" height="74.538" viewBox="0 0 75 74.538">
  <g id="Group_4974" data-name="Group 4974" transform="translate(-709.049 -228.226)">
    <g id="Logos_3karatLogo" data-name="Logos / 3karatLogo" transform="translate(699.049 218.226)">
      <ellipse id="Oval" cx="37.5" cy="37.269" rx="37.5" ry="37.269" transform="translate(10 10)" fill="#0d4264"/>
    </g>
    <path id="Path_6436" data-name="Path 6436" d="M41.934,35.074c.643-1.085,1.189-2.014,1.891-3.2.624,2.716,1.18,5.127,1.791,7.783L37.76,38.031c.934-.6,1.654-1.062,2.206-1.417-1.8-1.914-3.454-3.9-5.345-5.623C33.253,29.742,31.539,30,30,31.428c-1.718,1.6-3.386,3.272-5,4.981a7.068,7.068,0,0,1-4.3,2.342,6,6,0,0,1-6.621-5.578,6.066,6.066,0,0,1,1.887-4.931q7.854-7.82,15.681-15.667c1.23-1.23,2.47-2.461,3.687-3.709a3.949,3.949,0,0,0,.041-5.619,3.879,3.879,0,0,0-5.605.082Q20.277,12.8,10.814,22.319a6.227,6.227,0,0,1-6.726,1.855A5.6,5.6,0,0,1,.133,19.589,5.868,5.868,0,0,1,1.8,14.157c1.946-1.964,3.869-3.96,5.865-5.874A1.557,1.557,0,0,0,8.148,6.6,3.91,3.91,0,0,1,10.5,1.954a4.112,4.112,0,0,1,4.881,6.311A3.852,3.852,0,0,1,10.823,9.6a1.445,1.445,0,0,0-1.932.433c-1.732,1.809-3.527,3.554-5.3,5.327-1.846,1.85-1.982,4.211-.342,5.851,1.663,1.663,4.1,1.527,5.961-.337Q18.7,11.4,28.172,1.917a6.055,6.055,0,1,1,8.485,8.622q-9.474,9.474-18.939,18.952c-2.456,2.461-2,5.582,1.053,6.927a3.367,3.367,0,0,0,3.8-.738c1.914-1.773,3.687-3.7,5.6-5.473,3.117-2.885,6.17-2.762,9.187.264,1.49,1.495,2.985,2.989,4.584,4.593ZM12.067,7.718a1.99,1.99,0,1,0-1.955-2.046A1.975,1.975,0,0,0,12.067,7.718Z" transform="translate(723.733 247.18)" fill="#5bcfd0" stroke="#5bcfd0" stroke-width="2"/>
  </g>
</svg>
