<svg xmlns="http://www.w3.org/2000/svg" xmlns:xlink="http://www.w3.org/1999/xlink" width="81.063" height="71.209" viewBox="0 0 81.063 71.209">
  <defs>
    <clipPath id="clip-path">
      <rect id="Rectangle_34" data-name="Rectangle 34" width="81.063" height="71.209" transform="translate(0 0)" fill="none"/>
    </clipPath>
  </defs>
  <g id="Group_67" data-name="Group 67" transform="translate(0 0)">
    <g id="Group_66" data-name="Group 66" clip-path="url(#clip-path)">
      <path id="Path_260" data-name="Path 260" d="M37.248,1.9.514,65.522A3.791,3.791,0,0,0,3.8,71.209H77.266a3.791,3.791,0,0,0,3.283-5.687L43.815,1.9a3.791,3.791,0,0,0-6.567,0" fill="#d81f35"/>
      <path id="Path_261" data-name="Path 261" d="M40.6,52.525a4.151,4.151,0,0,1,4.3,4.3,4.059,4.059,0,0,1-4.3,4.379,4.133,4.133,0,0,1-4.307-4.379,4.2,4.2,0,0,1,4.307-4.3m-3.388-24.98v-5.93h6.916v5.648c0,5.994-.776,17.855-.988,19.9H38.126c-.141-1.977-.917-13.694-.917-19.619" fill="#f9f9f9"/>
    </g>
  </g>
</svg>
