<svg xmlns="http://www.w3.org/2000/svg" width="75" height="74.538" viewBox="0 0 75 74.538">
  <g id="Group_4973" data-name="Group 4973" transform="translate(-1409.049 -266.226)">
    <g id="Logos_3karatLogo" data-name="Logos / 3karatLogo" transform="translate(1399.049 256.226)">
      <ellipse id="Oval" cx="37.5" cy="37.269" rx="37.5" ry="37.269" transform="translate(10 10)" fill="#0d4264"/>
    </g>
    <g id="Group_4948" data-name="Group 4948" transform="translate(1429.856 281.161)">
      <path id="Path_6444" data-name="Path 6444" d="M67.095,62.451a.827.827,0,0,0-1.161.135l-7.072,8.932L55.439,68.5a.827.827,0,0,0-1.094,1.24l4.077,3.6a.824.824,0,0,0,.547.208.466.466,0,0,0,.073,0,.833.833,0,0,0,.576-.31l7.615-9.616a.827.827,0,0,0-.135-1.161Z" transform="translate(-43.653 -50.28)" fill="#57c47d" stroke="#57c47d" stroke-width="1"/>
      <path id="Path_6445" data-name="Path 6445" d="M40.374,28.84A11.534,11.534,0,1,0,51.908,40.374,11.548,11.548,0,0,0,40.374,28.84Zm0,21.414a9.88,9.88,0,1,1,9.88-9.88A9.89,9.89,0,0,1,40.374,50.254Z" transform="translate(-23.286 -23.286)" fill="#57c47d" stroke="#57c47d" stroke-width="1"/>
      <path id="Path_6446" data-name="Path 6446" d="M28.38,29.9a17.088,17.088,0,1,0-22.411.15L.364,40.126A.827.827,0,0,0,1.2,41.347l5.437-.741,2.484,5.169a.827.827,0,0,0,.72.468h.025a.824.824,0,0,0,.722-.426l6.475-11.642h.023c.11,0,.218-.006.325-.008l6,11.673a.828.828,0,0,0,.736.449h.01a.824.824,0,0,0,.734-.466l2.4-4.938,5.677.8a.828.828,0,0,0,.851-1.2L28.378,29.9ZM9.92,43.617,7.867,39.346a.825.825,0,0,0-.857-.46l-4.395.6,4.676-8.408a17,17,0,0,0,7.938,3L9.92,43.619ZM17.845,32.5c-.25.012-.5.019-.757.019A15.433,15.433,0,1,1,32.522,17.088,15.278,15.278,0,0,1,17.862,32.5h-.017Zm9.086,6.66a.825.825,0,0,0-.859.458l-1.941,3.992L19.209,34.04a16.983,16.983,0,0,0,7.852-3.089l4.564,8.871-4.693-.659Z" fill="#57c47d" stroke="#57c47d" stroke-width="1"/>
    </g>
  </g>
</svg>
