<svg xmlns="http://www.w3.org/2000/svg" width="81.063" height="71.209"><defs><clipPath id="a"><path fill="none" d="M0 0h81.063v71.209H0z" data-name="Rectangle 34"/></clipPath></defs><g data-name="Group 67"><g clip-path="url(#a)" data-name="Group 66"><path fill="#d81f35" d="M37.248 1.9.514 65.522A3.791 3.791 0 0 0 3.8 71.209h73.466a3.791 3.791 0 0 0 3.283-5.687L43.815 1.9a3.791 3.791 0 0 0-6.567 0" data-name="Path 260"/><path fill="#f9f9f9" d="M40.6 52.525a4.151 4.151 0 0 1 4.3 4.3 4.059 4.059 0 0 1-4.3 4.379 4.133 4.133 0 0 1-4.307-4.379 4.2 4.2 0 0 1 4.307-4.3m-3.388-24.98v-5.93h6.916v5.648c0 5.994-.776 17.855-.988 19.9h-5.014c-.141-1.977-.917-13.694-.917-19.619" data-name="Path 261"/></g></g></svg>